<svg width="232.96641845703124px" height="121.60000610351562px" xmlns="http://www.w3.org/2000/svg" viewBox="133.51679077148438 14.199996948242188 232.96641845703124 121.60000610351562" style="background: rgb(253, 253, 253);" preserveAspectRatio="xMidYMid">
  <defs>
    <filter id="editing-hole" x="-100%" y="-100%" width="300%" height="300%">
      <feFlood flood-color="#000000" result="black"></feFlood>
      <feMorphology operator="dilate" radius="2" in="SourceGraphic" result="erode"></feMorphology>
      <feGaussianBlur in="erode" stdDeviation="4" result="blur"></feGaussianBlur>
      <feOffset in="blur" dx="2" dy="2" result="offset"></feOffset>
      <feComposite operator="atop" in="offset" in2="black" result="merge"></feComposite>
      <feComposite operator="in" in="merge" in2="SourceGraphic" result="inner-shadow"></feComposite>
    </filter>
  </defs>
  <g filter="url(#editing-hole)">
    <g transform="translate(171.30318689346313, 97.39999580383301)">
      <path d="M2.69-39.68L2.69-39.68L2.69-39.68Q4.54-43.52 9.70-43.52L9.70-43.52L9.70-43.52Q14.85-43.52 17.25-40.54L17.25-40.54L17.25-40.54Q19.65-37.57 19.65-30.72L19.65-30.72L19.65-7.87L35.20-42.18L42.82-42.18L22.91 0L7.94 0L6.02-30.72L6.02-30.72Q5.82-34.11 4.90-36.42L4.90-36.42L4.90-36.42Q3.97-38.72 2.69-39.68ZM66.82 1.28L66.82 1.28L66.82 1.28Q58.62 1.28 57.86-10.37L57.86-10.37L46.85-10.37L46.85-10.37Q45.57-7.42 44.67-4.86L44.67-4.86L43.01 0L34.05 0L54.21-42.24L67.97-42.24L70.66-11.14L70.66-11.14Q71.30-4.42 73.86-2.43L73.86-2.43L73.86-2.43Q72 1.28 66.82 1.28ZM52.35-23.17L48.83-15.04L57.66-15.04L56.90-31.49L56.90-33.22L52.35-23.17ZM102.53-29.57L102.53-29.57L102.53-29.57Q103.49-31.49 103.49-33.28L103.49-33.28L103.49-33.28Q103.49-35.07 103.30-36.06L103.30-36.06L103.30-36.06Q103.10-37.06 102.66-37.82L102.66-37.82L102.66-37.82Q101.70-39.49 99.78-39.49L99.78-39.49L99.78-39.49Q97.41-39.49 95.49-37.76L95.49-37.76L95.49-37.76Q93.44-35.97 93.44-33.15L93.44-33.15L93.44-33.15Q93.44-31.36 94.69-29.98L94.69-29.98L94.69-29.98Q95.94-28.61 97.86-27.33L97.86-27.33L97.86-27.33Q99.78-26.05 101.95-24.77L101.95-24.77L101.95-24.77Q104.13-23.49 106.05-21.95L106.05-21.95L106.05-21.95Q110.46-18.43 110.46-13.70L110.46-13.70L110.46-13.70Q110.46-10.50 108.77-7.78L108.77-7.78L108.77-7.78Q107.07-5.06 104.26-3.07L104.26-3.07L104.26-3.07Q98.11 1.28 89.98 1.28L89.98 1.28L89.98 1.28Q83.39 1.28 80.00-0.86L80.00-0.86L80.00-0.86Q76.61-3.01 76.61-6.27L76.61-6.27L76.61-6.27Q76.61-12.10 81.15-13.57L81.15-13.57L81.15-13.57Q82.43-14.02 84.38-14.02L84.38-14.02L84.38-14.02Q86.34-14.02 88.58-13.18L88.58-13.18L88.58-13.18Q87.55-10.56 87.55-8.19L87.55-8.19L87.55-8.19Q87.55-3.07 91.20-3.07L91.20-3.07L91.20-3.07Q93.57-3.07 95.52-4.80L95.52-4.80L95.52-4.80Q97.47-6.53 97.47-8.48L97.47-8.48L97.47-8.48Q97.47-10.43 96.22-11.84L96.22-11.84L96.22-11.84Q94.98-13.25 93.12-14.37L93.12-14.37L93.12-14.37Q91.26-15.49 89.12-16.58L89.12-16.58L89.12-16.58Q86.98-17.66 85.12-19.20L85.12-19.20L85.12-19.20Q80.77-22.72 80.77-28.35L80.77-28.35L80.77-28.35Q80.77-32 82.56-34.85L82.56-34.85L82.56-34.85Q84.35-37.70 87.23-39.62L87.23-39.62L87.23-39.62Q92.99-43.52 100.06-43.52L100.06-43.52L100.06-43.52Q107.14-43.52 110.56-41.41L110.56-41.41L110.56-41.41Q113.98-39.30 113.98-35.71L113.98-35.71L113.98-35.71Q113.98-32.58 111.55-30.59L111.55-30.59L111.55-30.59Q109.44-28.93 106.88-28.93L106.88-28.93L106.88-28.93Q104.32-28.93 102.53-29.57ZM140.35-42.69L140.35-42.69L140.35-42.69Q156.03-42.69 156.03-31.62L156.03-31.62L156.03-31.62Q156.03-25.54 152.13-21.89L152.13-21.89L152.13-21.89Q148.29-18.24 141.57-18.24L141.57-18.24L141.57-18.24Q138.43-18.24 136.00-20.03L136.00-20.03L136.00-20.03Q134.85-20.80 134.08-21.82L134.08-21.82L134.08-21.82Q138.75-21.82 141.22-24.67L141.22-24.67L141.22-24.67Q143.68-27.52 143.68-33.09L143.68-33.09L143.68-33.09Q143.68-38.66 138.18-38.66L138.18-38.66L136.64-38.66L136.64-38.66Q136.26-38.66 135.94-38.59L135.94-38.59L128.58 0L114.69 0L122.56-41.92L122.56-41.92Q129.41-42.56 133.38-42.62L133.38-42.62L133.38-42.62Q137.34-42.69 140.35-42.69Z" fill="#000000"></path>
    </g>
  </g>
  <style>text {
  font-size: 64px;
  font-family: Arial Black;
  dominant-baseline: central;
  text-anchor: middle;
}</style>
</svg>